<svg width="18" height="18" viewBox="0 0 18 18" fill="none" xmlns="http://www.w3.org/2000/svg">
<g clip-path="url(#clip0_230_412)">
<path d="M10.1126 4.49606C10.1126 4.64218 10.0838 4.78686 10.0279 4.92185C9.97197 5.05684 9.89002 5.17949 9.7867 5.28281C9.68338 5.38612 9.56073 5.46808 9.42574 5.52399C9.29075 5.57991 9.14607 5.60869 8.99995 5.60869C8.85384 5.60869 8.70916 5.57991 8.57417 5.52399C8.43918 5.46808 8.31653 5.38612 8.21321 5.28281C8.10989 5.17949 8.02794 5.05684 7.97202 4.92185C7.91611 4.78686 7.88733 4.64218 7.88733 4.49606C7.88733 4.20098 8.00455 3.91798 8.21321 3.70932C8.42187 3.50066 8.70487 3.38344 8.99995 3.38344C9.29504 3.38344 9.57804 3.50066 9.7867 3.70932C9.99536 3.91798 10.1126 4.20098 10.1126 4.49606ZM8.9212 6.732C9.46514 6.732 9.90558 7.17244 9.90558 7.71638V13.6733C9.90558 13.9343 9.80187 14.1847 9.61726 14.3693C9.43266 14.5539 9.18228 14.6576 8.9212 14.6576C8.66013 14.6576 8.40975 14.5539 8.22515 14.3693C8.04054 14.1847 7.93683 13.9343 7.93683 13.6733V7.71638C7.93683 7.17244 8.37783 6.732 8.9212 6.732Z" fill="black" fill-opacity="0.6"/>
<path d="M3.375 0.5625C3.00566 0.5625 2.63993 0.635247 2.2987 0.776589C1.95747 0.91793 1.64743 1.1251 1.38626 1.38626C0.858816 1.91371 0.5625 2.62908 0.5625 3.375V14.625C0.5625 15.3709 0.858816 16.0863 1.38626 16.6137C1.64743 16.8749 1.95747 17.0821 2.2987 17.2234C2.63993 17.3648 3.00566 17.4375 3.375 17.4375H14.625C15.3709 17.4375 16.0863 17.1412 16.6137 16.6137C17.1412 16.0863 17.4375 15.3709 17.4375 14.625V3.375C17.4375 3.00566 17.3648 2.63993 17.2234 2.2987C17.0821 1.95747 16.8749 1.64743 16.6137 1.38626C16.3526 1.1251 16.0425 0.91793 15.7013 0.776589C15.3601 0.635247 14.9943 0.5625 14.625 0.5625H3.375ZM1.6875 3.375C1.6875 2.92745 1.86529 2.49822 2.18176 2.18176C2.49822 1.86529 2.92745 1.6875 3.375 1.6875H14.625C15.0726 1.6875 15.5018 1.86529 15.8182 2.18176C16.1347 2.49822 16.3125 2.92745 16.3125 3.375V14.625C16.3125 15.0726 16.1347 15.5018 15.8182 15.8182C15.5018 16.1347 15.0726 16.3125 14.625 16.3125H3.375C2.92745 16.3125 2.49822 16.1347 2.18176 15.8182C1.86529 15.5018 1.6875 15.0726 1.6875 14.625V3.375Z" fill="black" fill-opacity="0.6"/>
</g>
<defs>
<clipPath id="clip0_230_412">
<rect width="18" height="18" fill="white"/>
</clipPath>
</defs>
</svg>
