<svg width="35" height="36" viewBox="0 0 35 36" fill="none" xmlns="http://www.w3.org/2000/svg">
<mask id="mask0_7_42" style="mask-type:alpha" maskUnits="userSpaceOnUse" x="4" y="1" width="27" height="34">
<path d="M17.5 32.5833C23.5047 32.5833 28.4375 27.8248 28.4375 21.7173C28.4375 20.2181 28.3609 18.611 27.5297 16.1129C26.6984 13.6148 26.5315 13.2925 25.6528 11.7496C25.2773 14.8974 23.2684 16.2099 22.758 16.6022C22.758 16.1938 21.5432 11.6825 19.7006 8.98239C17.8916 6.33332 15.4314 4.59572 13.9891 3.41666C13.9891 5.6552 13.3598 8.98311 12.4578 10.6792C11.5566 12.3745 11.3874 12.4364 10.2608 13.6979C9.135 14.9594 8.61802 15.3495 7.67594 16.8807C6.73458 18.412 6.5625 20.4514 6.5625 21.9506C6.5625 28.0581 11.4953 32.5833 17.5 32.5833Z" fill="white" stroke="white" stroke-width="4" stroke-linejoin="round"/>
</mask>
<g mask="url(#mask0_7_42)">
<path d="M0 0.5H35V35.5H0V0.5Z" fill="white"/>
</g>
</svg>
